<svg width="120" height="48" viewBox="0 0 120 48" fill="none" xmlns="http://www.w3.org/2000/svg">
  <!-- Beach/Sand -->
  <ellipse cx="60" cy="42" rx="55" ry="6" fill="#F4E4C1" opacity="0.6"/>
  
  <!-- Ocean waves -->
  <path d="M5 38 Q15 36 25 38 T45 38 T65 38 T85 38 T105 38 T125 38" stroke="#4A9ECC" stroke-width="2" fill="none" opacity="0.7"/>
  <path d="M0 40 Q10 39 20 40 T40 40 T60 40 T80 40 T100 40 T120 40" stroke="#5DADE2" stroke-width="1.5" fill="none" opacity="0.5"/>
  
  <!-- Palm tree trunk -->
  <path d="M85 38 Q83 32 84 26 Q85 20 83 14" stroke="#8B6F47" stroke-width="2.5" fill="none" stroke-linecap="round"/>
  
  <!-- Palm leaves -->
  <path d="M84 14 Q78 8 72 6" stroke="#2E7D32" stroke-width="2" fill="none" stroke-linecap="round"/>
  <path d="M84 14 Q88 8 94 6" stroke="#2E7D32" stroke-width="2" fill="none" stroke-linecap="round"/>
  <path d="M84 14 Q82 7 80 2" stroke="#388E3C" stroke-width="2" fill="none" stroke-linecap="round"/>
  <path d="M84 14 Q90 10 96 8" stroke="#388E3C" stroke-width="1.8" fill="none" stroke-linecap="round"/>
  <path d="M84 14 Q78 10 70 8" stroke="#43A047" stroke-width="1.8" fill="none" stroke-linecap="round"/>
  
  <!-- Coconuts -->
  <circle cx="82" cy="16" r="1.5" fill="#8B6F47"/>
  <circle cx="85" cy="16" r="1.5" fill="#8B6F47"/>
  
  <!-- Airplane body -->
  <path d="M20 18 L38 18 L42 22 L38 22 Z" fill="#E3F2FD" stroke="#1976D2" stroke-width="1"/>
  
  <!-- Airplane wings -->
  <path d="M28 18 L22 12 L24 12 L30 18 Z" fill="#BBDEFB" stroke="#1976D2" stroke-width="0.8"/>
  <path d="M32 22 L28 28 L30 28 L34 22 Z" fill="#BBDEFB" stroke="#1976D2" stroke-width="0.8"/>
  
  <!-- Airplane tail -->
  <path d="M20 18 L16 14 L18 14 L20 18 Z" fill="#90CAF9" stroke="#1976D2" stroke-width="0.8"/>
  
  <!-- Airplane windows -->
  <circle cx="36" cy="20" r="1.2" fill="#1976D2" opacity="0.6"/>
  <circle cx="32" cy="20" r="1.2" fill="#1976D2" opacity="0.6"/>
  <circle cx="28" cy="20" r="1.2" fill="#1976D2" opacity="0.6"/>
  
  <!-- Motion lines -->
  <line x1="12" y1="16" x2="16" y2="16" stroke="#1976D2" stroke-width="0.8" opacity="0.4"/>
  <line x1="10" y1="19" x2="15" y2="19" stroke="#1976D2" stroke-width="0.8" opacity="0.4"/>
  <line x1="12" y1="22" x2="16" y2="22" stroke="#1976D2" stroke-width="0.8" opacity="0.4"/>
  
  <!-- Sun -->
  <circle cx="105" cy="12" r="6" fill="#FFD54F" opacity="0.8"/>
  <circle cx="105" cy="12" r="4" fill="#FFF59D"/>
  
  <!-- Sun rays -->
  <line x1="105" y1="4" x2="105" y2="2" stroke="#FFD54F" stroke-width="1.5" stroke-linecap="round"/>
  <line x1="105" y1="20" x2="105" y2="22" stroke="#FFD54F" stroke-width="1.5" stroke-linecap="round"/>
  <line x1="113" y1="12" x2="115" y2="12" stroke="#FFD54F" stroke-width="1.5" stroke-linecap="round"/>
  <line x1="97" y1="12" x2="95" y2="12" stroke="#FFD54F" stroke-width="1.5" stroke-linecap="round"/>
  <line x1="110" y1="7" x2="112" y2="5" stroke="#FFD54F" stroke-width="1.2" stroke-linecap="round"/>
  <line x1="100" y1="17" x2="98" y2="19" stroke="#FFD54F" stroke-width="1.2" stroke-linecap="round"/>
  <line x1="110" y1="17" x2="112" y2="19" stroke="#FFD54F" stroke-width="1.2" stroke-linecap="round"/>
  <line x1="100" y1="7" x2="98" y2="5" stroke="#FFD54F" stroke-width="1.2" stroke-linecap="round"/>
</svg>
